<svg width="34" height="34" viewBox="0 0 34 34" fill="none" xmlns="http://www.w3.org/2000/svg">
<path d="M28.0713 29.2299V26.4456C28.0713 24.9687 27.4846 23.5524 26.4403 22.508C25.396 21.4637 23.9796 20.8771 22.5027 20.8771H21.1106C20.7414 20.8771 20.3873 20.7304 20.1262 20.4693C19.8651 20.2082 19.7184 19.8541 19.7184 19.4849V12.5242C19.7184 11.7858 19.4251 11.0776 18.903 10.5554C18.3808 10.0333 17.6726 9.73994 16.9342 9.73994C16.1957 9.73994 15.4875 10.0333 14.9654 10.5554C14.4432 11.0776 14.1499 11.7858 14.1499 12.5242V25.0535L10.8088 20.5986C10.5494 20.2528 10.2131 19.9722 9.8265 19.7789C9.43989 19.5856 9.01358 19.4849 8.58134 19.4849H7.97715C6.77295 19.4849 5.79706 20.4608 5.79706 21.665C5.79706 22.0604 5.90425 22.4488 6.10751 22.7871L9.97347 29.2299M16.9342 5.56353V4.17139V5.56353ZM25.287 13.9164H26.6791H25.287ZM7.1892 13.9164H8.58134H7.1892ZM10.451 7.43317L9.46674 6.44893L10.451 7.43317ZM23.4174 7.43317L24.4016 6.44893L23.4174 7.43317Z" fill="#4CAF4F"/>
<path d="M28.0713 29.2299V26.4456C28.0713 24.9687 27.4846 23.5524 26.4403 22.508C25.396 21.4637 23.9796 20.8771 22.5027 20.8771H21.1106C20.7414 20.8771 20.3873 20.7304 20.1262 20.4693C19.8651 20.2082 19.7184 19.8541 19.7184 19.4849V12.5242C19.7184 11.7858 19.4251 11.0776 18.903 10.5554C18.3808 10.0333 17.6726 9.73994 16.9342 9.73994V9.73994C16.1957 9.73994 15.4875 10.0333 14.9654 10.5554C14.4432 11.0776 14.1499 11.7858 14.1499 12.5242V25.0535L10.8088 20.5986C10.5494 20.2528 10.2131 19.9722 9.8265 19.7789C9.43989 19.5856 9.01358 19.4849 8.58134 19.4849H7.97715C6.77295 19.4849 5.79706 20.4608 5.79706 21.665C5.79706 22.0604 5.90425 22.4488 6.10751 22.7871L9.97347 29.2299M16.9342 5.56353V4.17139M25.287 13.9164H26.6791M7.1892 13.9164H8.58134M10.451 7.43317L9.46674 6.44893M23.4174 7.43317L24.4016 6.44893" stroke="#4CAF4F" stroke-width="1.39214" stroke-linecap="round" stroke-linejoin="round"/>
</svg>
