<svg width="35" height="34" viewBox="0 0 35 34" fill="none" xmlns="http://www.w3.org/2000/svg">
<path d="M4.43665 11.4802V11.8282H4.78468H29.8432H30.1912V11.4802V9.91405C30.1912 9.12946 29.8795 8.377 29.3248 7.82221C28.77 7.26743 28.0175 6.95575 27.2329 6.95575H7.39494C6.61035 6.95575 5.8579 7.26743 5.30311 7.82221C4.74832 8.377 4.43665 9.12946 4.43665 9.91405V11.4802ZM30.1912 13.5684V13.2204H29.8432H4.78468H4.43665V13.5684V23.4874C4.43665 24.272 4.74832 25.0244 5.30311 25.5792C5.8579 26.134 6.61035 26.4457 7.39494 26.4457H27.2329C28.0175 26.4457 28.77 26.134 29.3248 25.5792C29.8795 25.0244 30.1912 24.272 30.1912 23.4874V13.5684ZM3.04451 9.91405C3.04451 8.76024 3.50285 7.65369 4.31872 6.83782C5.13458 6.02196 6.24113 5.56361 7.39494 5.56361H27.2329C28.3867 5.56361 29.4933 6.02196 30.3091 6.83782C31.125 7.65369 31.5834 8.76024 31.5834 9.91405V23.4874C31.5834 24.6412 31.125 25.7478 30.3091 26.5636C29.4933 27.3795 28.3867 27.8378 27.2329 27.8378H7.39494C6.24113 27.8378 5.13458 27.3795 4.31872 26.5636C3.50285 25.7478 3.04451 24.6412 3.04451 23.4874V9.91405ZM22.5345 20.1811H25.6668C25.8514 20.1811 26.0284 20.2544 26.159 20.3849C26.2895 20.5155 26.3628 20.6925 26.3628 20.8771C26.3628 21.0617 26.2895 21.2388 26.159 21.3693C26.0284 21.4999 25.8514 21.5732 25.6668 21.5732H22.5345C22.3498 21.5732 22.1728 21.4999 22.0423 21.3693C21.9117 21.2388 21.8384 21.0617 21.8384 20.8771C21.8384 20.6925 21.9117 20.5155 22.0423 20.3849C22.1728 20.2544 22.3498 20.1811 22.5345 20.1811Z" fill="#4CAF4F" stroke="#4CAF4F" stroke-width="0.696069"/>
</svg>
