<svg width="308" height="230" viewBox="0 0 308 230" fill="none" xmlns="http://www.w3.org/2000/svg">
<path d="M153.903 229.199C219.724 229.199 273.082 226.084 273.082 222.241C273.082 218.398 219.724 215.283 153.903 215.283C88.0818 215.283 34.7234 218.398 34.7234 222.241C34.7234 226.084 88.0818 229.199 153.903 229.199Z" fill="#F5F5F5"/>
<path d="M214.909 66.8448L208.812 64.3861C208.812 64.3861 200.766 79.0584 198.461 79.8022C195.326 80.8102 188.835 83.6131 184.987 84.1049C184.464 84.7196 183.61 86.6312 183.69 87.3258C188.859 89.053 200.219 86.7603 202.653 84.9531C208.191 80.8533 214.909 66.8448 214.909 66.8448Z" fill="#E58A7B"/>
<path d="M216.784 63.5072C217.921 67.7055 211.762 76.1511 211.762 76.1511L203.691 71.6271C203.691 71.6271 205.204 68.1542 207.048 64.6198C210.004 58.9095 215.487 58.7189 216.784 63.5072Z" fill="#4CAF4F"/>
<path opacity="0.2" d="M216.784 63.5072C217.921 67.7055 211.762 76.1511 211.762 76.1511L203.691 71.6271C203.691 71.6271 205.204 68.1542 207.048 64.6198C210.004 58.9095 215.487 58.7189 216.784 63.5072Z" fill="black"/>
<path opacity="0.2" d="M206.894 73.4341L210.072 75.2167L210.631 65.4618C208.781 66.8817 207.478 71.1598 206.894 73.4341Z" fill="black"/>
<path d="M211.473 60.3478C211.473 60.3478 205.191 74.3255 208.855 100.351H233.608C234.001 96.5522 232.698 78.0136 237.412 60.1142C234.697 59.5835 231.95 59.2324 229.188 59.0631C225.685 58.8601 222.174 58.8601 218.671 59.0631C216.243 59.3097 213.837 59.7391 211.473 60.3478Z" fill="#4CAF4F"/>
<path opacity="0.2" d="M211.473 60.3478C211.473 60.3478 205.191 74.3255 208.855 100.351H233.608C234.001 96.5522 232.698 78.0136 237.412 60.1142C234.697 59.5835 231.95 59.2324 229.188 59.0631C225.685 58.8601 222.174 58.8601 218.671 59.0631C216.243 59.3097 213.837 59.7391 211.473 60.3478Z" fill="black"/>
<g style="mix-blend-mode:multiply">
<path d="M205.732 222.794C205.695 223.458 215.081 223.993 226.693 223.993C238.304 223.993 247.757 223.458 247.794 222.794C247.831 222.13 238.451 221.602 226.834 221.602C215.217 221.602 205.775 222.136 205.732 222.794Z" fill="#E8ECF1"/>
</g>
<path d="M222.255 205.351L217.865 207.051L221.646 216.82L226.037 215.121L222.255 205.351Z" fill="#E58A7B"/>
<path d="M241.832 218.067H237.204L235.507 207.353H240.136L241.832 218.067Z" fill="#E58A7B"/>
<path d="M236.884 217.532H242.084C242.174 217.533 242.261 217.565 242.33 217.624C242.399 217.682 242.444 217.763 242.459 217.852L243.129 221.964C243.143 222.067 243.135 222.172 243.105 222.272C243.075 222.372 243.024 222.464 242.955 222.542C242.886 222.62 242.801 222.683 242.706 222.725C242.611 222.767 242.508 222.789 242.404 222.788C240.59 222.757 239.718 222.647 237.431 222.647C236.023 222.647 233.128 222.794 231.174 222.794C229.219 222.794 229.09 220.876 229.895 220.698C233.509 219.917 234.911 218.854 236.116 217.821C236.328 217.635 236.601 217.532 236.884 217.532Z" fill="#263238"/>
<path d="M221.517 215.947L226.434 214.508C226.522 214.484 226.616 214.49 226.7 214.525C226.783 214.561 226.853 214.625 226.895 214.705L228.739 218.393C228.782 218.487 228.804 218.588 228.804 218.691C228.803 218.794 228.78 218.896 228.736 218.989C228.692 219.082 228.628 219.164 228.549 219.23C228.47 219.296 228.378 219.344 228.278 219.37C226.49 219.862 225.291 220.163 223.054 220.815C221.511 221.264 219.937 221.995 218.413 222.481C217.356 222.819 214.872 222.831 213.588 222.831C211.688 222.831 211.264 220.827 212.082 220.735C214.141 220.508 214.417 220.612 215.555 220.04C217.415 219.227 219.102 218.062 220.521 216.61C220.789 216.305 221.132 216.076 221.517 215.947Z" fill="#263238"/>
<path d="M185.761 84.0803L180.672 81.9474L178.576 87.5901C180.662 87.9079 182.784 87.9079 184.87 87.5901L185.761 84.0803Z" fill="#E58A7B"/>
<path d="M176.885 81.7999L176.75 85.5494L178.576 87.5779L180.672 81.9352L176.885 81.7999Z" fill="#E58A7B"/>
<path d="M222.857 206.181L218.453 207.881L220.404 212.933L224.808 211.233L222.857 206.181Z" fill="#CF6F64"/>
<path d="M240.136 207.353H235.507L236.386 212.879H241.015L240.136 207.353Z" fill="#CF6F64"/>
<path opacity="0.2" d="M208.068 93.3128C208.16 94.4253 208.265 95.5625 208.4 96.7304L226.803 90.7557C229.677 89.9039 232.175 88.0979 233.884 85.6355C233.958 83.9943 234.05 82.267 234.192 80.466C234.253 79.5932 234.327 78.6958 234.407 77.7861C234.487 76.8763 234.597 75.8683 234.714 74.8971L208.068 93.3128Z" fill="black"/>
<path d="M214.079 73.1515L213.465 73.0777C213.827 70.0043 216.12 67.5825 218.536 67.644V68.2586C216.421 68.2156 214.405 70.3977 214.079 73.1515Z" fill="white"/>
<path d="M217.356 78.8249H217.251V78.2102C219.366 78.2901 221.351 76.0834 221.677 73.3358L222.292 73.4096C221.966 76.4153 219.747 78.8249 217.356 78.8249Z" fill="white"/>
<path d="M228.844 47.2183C227.977 50.6051 226.957 56.8072 229.188 59.0631C229.188 59.0631 227.627 62.4991 221.339 62.4991C215.592 62.4991 218.671 59.0631 218.671 59.0631C222.494 58.1656 222.562 55.375 222.058 52.7319L228.844 47.2183Z" fill="#E58A7B"/>
<path d="M226.078 49.468L222.064 52.7319C222.189 53.3393 222.26 53.9563 222.279 54.576C223.453 55.7438 225.807 52.7873 226.047 51.2752C226.169 50.6799 226.179 50.0671 226.078 49.468Z" fill="#CF6F64"/>
<path d="M215.161 47.1752C215.441 47.6593 215.817 48.0806 216.266 48.4127C216.716 48.7448 217.229 48.9806 217.774 49.1053C219.249 49.4311 219.986 48.0727 219.581 46.7081C219.218 45.4787 218.007 43.8253 216.507 44.108C216.186 44.1742 215.885 44.3164 215.63 44.5227C215.375 44.729 215.174 44.9934 215.042 45.2937C214.91 45.5941 214.852 45.9217 214.873 46.249C214.894 46.5764 214.992 46.894 215.161 47.1752Z" fill="#CF6F64"/>
<path d="M217.602 36.3385C215.303 37.3896 214.491 46.5237 217.38 47.8759C220.269 49.2282 221.953 34.3408 217.602 36.3385Z" fill="#263238"/>
<path d="M229.545 42.1226C228.991 46.7081 228.93 49.4065 226.471 51.7546C225.709 52.5338 224.747 53.0873 223.69 53.3539C222.634 53.6206 221.524 53.5901 220.484 53.2658C219.443 52.9415 218.513 52.3359 217.795 51.516C217.077 50.6962 216.599 49.6938 216.415 48.6197C215.671 44.5014 216.698 37.697 221.296 35.8714C222.262 35.4453 223.324 35.2853 224.373 35.4081C225.421 35.5308 226.418 35.9319 227.26 36.5696C228.101 37.2073 228.757 38.0584 229.159 39.0348C229.56 40.0113 229.694 41.0773 229.545 42.1226Z" fill="#E58A7B"/>
<path d="M221.99 38.7112C225.396 37.8445 227.897 37.2544 227 40.088C225.814 43.8744 224.388 47.5379 226.299 47.7039C227.467 47.8084 232.63 45.6201 231.973 43.4011C231.401 41.4711 233.817 40.9424 234.247 39.9651C235.839 36.4246 231.284 36.8917 232.096 34.7404C232.907 32.589 228.408 29.1222 225.949 30.8495C221.947 33.6401 215.081 33.5971 218.689 29.0055C221.277 25.7292 216.661 26.3992 216.661 26.3992C216.661 26.3992 219.452 28.0527 214.756 30.6098C209.789 33.3389 214.344 40.672 221.99 38.7112Z" fill="#263238"/>
<path d="M231.352 47.1752C230.68 48.148 229.67 48.8359 228.518 49.1053C227 49.4311 226.416 48.0727 226.988 46.7081C227.498 45.4787 228.899 43.8253 230.35 44.108C231.8 44.3908 232.132 45.9705 231.352 47.1752Z" fill="#E58A7B"/>
<path d="M208.855 100.351C208.855 100.351 204.699 137.539 204.374 151.652C204.042 166.33 218.456 212.13 218.456 212.13L225.832 209.056C225.832 209.056 217.227 167.209 218.456 152.795C219.759 137.078 225.144 100.375 225.144 100.375L208.855 100.351Z" fill="#4CAF4F"/>
<path opacity="0.2" d="M219.181 110.561C215.868 117.433 218.099 131.023 219.894 139.075C220.577 133.39 221.388 127.218 222.156 121.508C222.083 112.73 221.4 105.951 219.181 110.561Z" fill="black"/>
<path d="M225.506 206.622C225.543 206.622 226.379 208.97 226.379 208.97L217.872 212.547L216.532 210.052L225.506 206.622Z" fill="#4CAF4F"/>
<path d="M217.638 100.351C217.638 100.351 220.816 135.719 222.918 148.965C225.23 163.478 234.29 211.81 234.29 211.81H242.766C242.766 211.81 237.689 164.652 236.73 150.281C235.685 134.693 233.608 100.351 233.608 100.351H217.638Z" fill="#4CAF4F"/>
<path d="M242.895 209.603C242.932 209.603 243.178 211.97 243.178 211.97H233.86L233.196 209.253L242.895 209.603Z" fill="#4CAF4F"/>
<path opacity="0.2" d="M239.65 206.8C239.631 206.8 239.612 206.794 239.597 206.781C239.583 206.769 239.573 206.752 239.57 206.733C239.521 206.302 234.942 163.705 234.081 150.797C233.147 136.795 231.266 105.735 231.247 105.422C231.246 105.412 231.248 105.401 231.251 105.392C231.254 105.382 231.26 105.373 231.267 105.366C231.274 105.358 231.282 105.352 231.291 105.348C231.301 105.344 231.311 105.342 231.321 105.342C231.341 105.342 231.361 105.349 231.376 105.363C231.39 105.377 231.399 105.396 231.401 105.416C231.401 105.729 233.3 136.764 234.235 150.791C235.095 163.699 239.675 206.265 239.718 206.726C239.719 206.737 239.719 206.747 239.716 206.757C239.714 206.767 239.709 206.776 239.703 206.784C239.696 206.793 239.688 206.799 239.679 206.804C239.67 206.809 239.66 206.812 239.65 206.812V206.8Z" fill="black"/>
<path d="M222.513 43.4011C222.513 43.7761 222.279 44.0773 222.033 44.0773C221.787 44.0773 221.609 43.7761 221.634 43.4011C221.658 43.0262 221.867 42.725 222.113 42.725C222.359 42.725 222.537 43.0323 222.513 43.4011Z" fill="#263238"/>
<path d="M218.296 43.4011C218.296 43.7761 218.056 44.0773 217.817 44.0773C217.577 44.0773 217.393 43.7761 217.411 43.4011C217.429 43.0262 217.651 42.725 217.897 42.725C218.142 42.725 218.321 43.0323 218.296 43.4011Z" fill="#263238"/>
<path d="M219.624 43.5917C219.111 44.7366 218.449 45.8092 217.657 46.7818C218.272 47.3965 219.421 47.1138 219.421 47.1138L219.624 43.5917Z" fill="#DF5753"/>
<path d="M219.734 48.6812C219.72 48.6812 219.706 48.6784 219.693 48.6727C219.68 48.6671 219.668 48.6588 219.658 48.6485C219.648 48.6381 219.641 48.6258 219.636 48.6125C219.631 48.5991 219.629 48.5848 219.63 48.5706C219.632 48.5407 219.645 48.5125 219.666 48.4919C219.688 48.4713 219.717 48.4599 219.747 48.4599C220.217 48.4632 220.682 48.3611 221.107 48.1611C221.533 47.9611 221.908 47.6684 222.205 47.3043C222.227 47.2858 222.254 47.2755 222.282 47.2755C222.311 47.2755 222.338 47.2858 222.359 47.3043C222.379 47.325 222.39 47.3525 222.39 47.3812C222.39 47.4098 222.379 47.4374 222.359 47.458C222.041 47.8449 221.64 48.1556 221.185 48.3673C220.731 48.5789 220.235 48.6862 219.734 48.6812Z" fill="#263238"/>
<path d="M223.263 42.2702C223.233 42.2853 223.201 42.2932 223.167 42.2932C223.134 42.2932 223.102 42.2853 223.072 42.2702C222.842 42.1215 222.581 42.0291 222.308 42.0002C222.036 41.9714 221.761 42.007 221.505 42.1042C221.48 42.1167 221.453 42.124 221.425 42.1258C221.397 42.1276 221.369 42.1238 221.343 42.1147C221.316 42.1055 221.292 42.0912 221.271 42.0725C221.251 42.0538 221.234 42.0311 221.222 42.0059C221.199 41.9512 221.199 41.8897 221.22 41.8346C221.242 41.7795 221.285 41.7351 221.339 41.7108C221.66 41.5796 222.008 41.5278 222.354 41.5599C222.7 41.592 223.032 41.707 223.324 41.8952C223.348 41.9112 223.368 41.9318 223.383 41.9557C223.399 41.9795 223.41 42.0062 223.415 42.0343C223.42 42.0623 223.419 42.091 223.413 42.1189C223.407 42.1467 223.396 42.1731 223.38 42.1964C223.348 42.2317 223.308 42.2573 223.263 42.2702Z" fill="#263238"/>
<path d="M216.667 41.0408C216.634 41.0329 216.605 41.0159 216.581 40.9917C216.561 40.9716 216.544 40.9477 216.533 40.9213C216.522 40.8949 216.517 40.8666 216.517 40.838C216.517 40.8094 216.522 40.781 216.533 40.7547C216.544 40.7283 216.561 40.7044 216.581 40.6843C216.817 40.4201 217.11 40.2138 217.439 40.0816C217.767 39.9494 218.121 39.8948 218.474 39.9221C218.503 39.9265 218.53 39.9366 218.554 39.9519C218.578 39.9671 218.599 39.9872 218.615 40.0108C218.631 40.0344 218.642 40.0611 218.648 40.0892C218.653 40.1173 218.653 40.1462 218.646 40.1741C218.633 40.2311 218.6 40.2812 218.552 40.3152C218.505 40.3491 218.446 40.3645 218.388 40.3585C218.109 40.341 217.829 40.3872 217.571 40.4936C217.312 40.6001 217.081 40.7641 216.895 40.9732C216.867 41.0043 216.831 41.0271 216.79 41.039C216.75 41.051 216.708 41.0516 216.667 41.0408Z" fill="#263238"/>
<path d="M239.791 66.1626L233.399 64.46C233.399 64.46 227.129 79.8944 224.91 80.8964C221.898 82.2732 214.27 87.0431 211.025 89.299C210.846 90.0673 210.988 92.1019 211.393 92.6612C216.925 91.6532 227.516 87.5779 229.729 85.5064C234.776 80.7796 239.791 66.1626 239.791 66.1626Z" fill="#E58A7B"/>
<path d="M235.329 218.344C235.017 218.368 234.706 218.284 234.45 218.104C234.371 218.033 234.311 217.942 234.278 217.84C234.245 217.739 234.238 217.631 234.259 217.526C234.263 217.461 234.285 217.398 234.321 217.344C234.358 217.29 234.409 217.247 234.468 217.219C234.985 216.955 236.429 217.87 236.595 217.975C236.613 217.986 236.627 218.003 236.635 218.023C236.643 218.043 236.644 218.065 236.638 218.086C236.633 218.107 236.622 218.127 236.607 218.143C236.592 218.159 236.573 218.171 236.552 218.178C236.151 218.276 235.741 218.332 235.329 218.344ZM234.714 217.385C234.668 217.375 234.619 217.375 234.573 217.385C234.549 217.397 234.53 217.415 234.516 217.438C234.503 217.461 234.497 217.488 234.499 217.514C234.483 217.586 234.485 217.66 234.507 217.73C234.528 217.8 234.568 217.864 234.622 217.914C234.862 218.129 235.464 218.153 236.257 218C235.785 217.689 235.253 217.479 234.696 217.385H234.714Z" fill="#4CAF4F"/>
<path d="M236.521 218.178C236.505 218.183 236.488 218.183 236.472 218.178C236.011 217.92 235.144 216.906 235.273 216.389C235.293 216.307 235.339 216.234 235.405 216.182C235.47 216.13 235.552 216.101 235.636 216.1C235.719 216.089 235.802 216.096 235.882 216.121C235.962 216.145 236.035 216.186 236.097 216.242C236.607 216.678 236.638 218.018 236.638 218.086C236.641 218.106 236.637 218.127 236.627 218.144C236.617 218.162 236.601 218.176 236.583 218.184C236.562 218.188 236.541 218.186 236.521 218.178ZM235.698 216.303H235.654C235.513 216.303 235.495 216.383 235.489 216.414C235.415 216.715 235.962 217.483 236.417 217.846C236.415 217.327 236.254 216.821 235.956 216.395C235.884 216.333 235.792 216.3 235.698 216.303Z" fill="#4CAF4F"/>
<path d="M219.009 217.575C218.633 217.707 218.224 217.707 217.847 217.575C217.762 217.529 217.69 217.462 217.637 217.38C217.584 217.299 217.553 217.205 217.546 217.108C217.538 217.048 217.546 216.986 217.569 216.929C217.591 216.872 217.628 216.821 217.675 216.783C218.167 216.34 220.177 216.783 220.404 216.869C220.426 216.874 220.445 216.887 220.459 216.905C220.472 216.923 220.479 216.945 220.478 216.967C220.479 216.99 220.473 217.013 220.461 217.032C220.449 217.052 220.432 217.068 220.411 217.078C219.958 217.282 219.489 217.448 219.009 217.575ZM218.007 216.844C217.937 216.858 217.871 216.89 217.817 216.936C217.797 216.951 217.782 216.971 217.773 216.994C217.765 217.016 217.763 217.041 217.767 217.065C217.771 217.13 217.792 217.192 217.826 217.247C217.86 217.302 217.908 217.347 217.964 217.379C218.29 217.551 219.046 217.416 220.023 217.004C219.365 216.838 218.683 216.784 218.007 216.844Z" fill="#4CAF4F"/>
<path d="M220.392 217.078H220.343C219.728 216.967 218.499 216.26 218.462 215.731C218.462 215.609 218.517 215.436 218.812 215.338C218.912 215.303 219.018 215.288 219.123 215.294C219.229 215.3 219.332 215.328 219.427 215.375C220.091 215.701 220.441 216.881 220.46 216.936C220.464 216.955 220.464 216.974 220.458 216.993C220.453 217.011 220.443 217.027 220.429 217.041C220.42 217.056 220.407 217.068 220.392 217.078ZM218.935 215.522H218.874C218.683 215.59 218.683 215.67 218.683 215.695C218.683 216.014 219.575 216.598 220.195 216.795C220.052 216.301 219.75 215.869 219.335 215.566C219.211 215.503 219.069 215.487 218.935 215.522Z" fill="#4CAF4F"/>
<path d="M211.547 88.9363L205.136 91.8867L204.392 93.7307L206.759 95.3228C206.759 95.3228 211.184 94.8433 212.444 91.9974L211.547 88.9363Z" fill="#E58A7B"/>
<path d="M211.817 92.7657C211.674 91.5339 211.267 90.3473 210.625 89.2866L211.639 88.5244C212.402 89.7466 212.889 91.1206 213.065 92.5505L211.817 92.7657Z" fill="#263238"/>
<path d="M212.912 89.8091C213.047 90.0223 213.114 90.2721 213.102 90.5244C213.091 90.7768 213.002 91.0195 212.848 91.2195C212.693 91.4196 212.481 91.5672 212.24 91.6424C211.999 91.7176 211.74 91.7167 211.5 91.6398C211.259 91.5628 211.048 91.4137 210.895 91.2125C210.742 91.0114 210.655 90.768 210.646 90.5156C210.636 90.2632 210.704 90.0139 210.841 89.8017C210.979 89.5895 211.178 89.4247 211.412 89.3297C211.674 89.1958 211.979 89.1711 212.26 89.2609C212.541 89.3507 212.775 89.5477 212.912 89.8091Z" fill="#263238"/>
<path d="M200.802 94.2717L201.657 95.1322L207.41 92.6735L205.136 91.8867L200.802 94.2717Z" fill="#E58A7B"/>
<path opacity="0.2" d="M225.506 206.622C225.543 206.622 226.379 208.97 226.379 208.97L217.872 212.547L216.532 210.052L225.506 206.622Z" fill="black"/>
<path opacity="0.2" d="M242.895 209.603C242.932 209.603 243.178 211.97 243.178 211.97H233.86L233.196 209.253L242.895 209.603Z" fill="black"/>
<path d="M241.457 64.3923C243.147 69.8445 236.54 77.3005 236.54 77.3005L227.412 73.5756C228.494 70.4243 229.741 67.3322 231.149 64.3124C233.952 58.2702 239.748 58.891 241.457 64.3923Z" fill="#4CAF4F"/>
<path opacity="0.2" d="M241.457 64.3923C243.147 69.8445 236.54 77.3005 236.54 77.3005L227.412 73.5756C228.494 70.4243 229.741 67.3322 231.149 64.3124C233.952 58.2702 239.748 58.891 241.457 64.3923Z" fill="black"/>
<path d="M150.756 9.76611H146.828V10.3992H150.756V9.76611Z" fill="#4CAF4F"/>
<path d="M201.6 34.8242L201.125 45.3737L201.758 45.4022L202.233 34.8527L201.6 34.8242Z" fill="#4CAF4F"/>
<path d="M200.378 12.606H127.847L121.098 163.644H193.629L200.378 12.606Z" fill="#4CAF4F"/>
<path opacity="0.56" d="M198.215 14.6835H125.683L118.934 165.721H191.466L198.215 14.6835Z" fill="#FAFAFA"/>
<path opacity="0.07" d="M196.051 16.755H123.519L116.764 167.793H189.296L196.051 16.755Z" fill="#4CAF4F"/>
<path d="M187.796 82.6296H125.886L125.37 94.1855H187.28L187.796 82.6296Z" fill="white"/>
<path d="M159.933 74.1963H126.261L126.033 79.3657H159.705L159.933 74.1963Z" fill="#4CAF4F"/>
<path d="M186.401 113.818H124.491L123.974 125.374H185.884L186.401 113.818Z" fill="white"/>
<path opacity="0.47" d="M175.048 140.981H133.416L132.795 154.829H174.427L175.048 140.981Z" fill="#4CAF4F"/>
<path d="M172.263 156.981H130.631C130.613 156.985 130.594 156.985 130.576 156.981C130.57 156.963 130.57 156.943 130.576 156.925L131.191 143.071C131.19 143.061 131.192 143.052 131.196 143.043C131.2 143.035 131.206 143.027 131.212 143.021C131.219 143.014 131.228 143.009 131.237 143.006C131.245 143.003 131.255 143.002 131.264 143.003H172.896C172.904 142.999 172.912 142.997 172.921 142.997C172.929 142.997 172.938 142.999 172.945 143.003C172.95 143.011 172.952 143.019 172.952 143.028C172.952 143.036 172.95 143.045 172.945 143.052L172.343 156.938C172.336 156.952 172.324 156.964 172.31 156.972C172.295 156.979 172.279 156.983 172.263 156.981ZM130.705 156.833H172.189L172.804 143.126H131.32L130.705 156.833Z" fill="white"/>
<path d="M152.661 105.385H124.866L124.638 110.561H152.428L152.661 105.385Z" fill="#4CAF4F"/>
<path d="M174.255 45.3005C174.096 48.6636 172.9 51.8951 170.831 54.5514C169.299 56.5577 167.329 58.1866 165.07 59.3128C162.811 60.4391 160.324 61.0328 157.8 61.0485C155.76 61.064 153.739 60.6618 151.86 59.8666C149.982 59.0714 148.286 57.9001 146.878 56.4248C145.469 54.9494 144.378 53.2014 143.67 51.2882C142.963 49.375 142.655 47.3373 142.765 45.3005C142.981 41.074 144.804 37.0897 147.86 34.1625C150.916 31.2353 154.976 29.5862 159.207 29.5525C161.249 29.5335 163.272 29.9332 165.153 30.7271C167.033 31.5209 168.731 32.6919 170.141 34.1678C171.552 35.6437 172.644 37.3931 173.352 39.3079C174.059 41.2227 174.366 43.2623 174.255 45.3005Z" fill="white"/>
<path d="M175.736 32.8472C175.696 33.7414 175.378 34.6009 174.826 35.3059C174.418 35.8388 173.894 36.2714 173.293 36.5708C172.692 36.8701 172.031 37.0282 171.36 37.0331C170.709 37.0371 170.068 36.8817 169.491 36.5806C168.915 36.2796 168.421 35.8419 168.053 35.3059C167.565 34.5816 167.323 33.7194 167.364 32.8472C167.424 31.725 167.909 30.6678 168.721 29.8911C169.533 29.1144 170.611 28.6768 171.735 28.6674C172.277 28.6625 172.814 28.7686 173.313 28.9792C173.813 29.1898 174.264 29.5005 174.639 29.8921C175.014 30.2837 175.305 30.7479 175.493 31.2561C175.682 31.7643 175.765 32.3058 175.736 32.8472Z" fill="#4CAF4F"/>
<path d="M132.555 88.4077C132.526 88.903 132.309 89.3687 131.95 89.7109C131.591 90.0531 131.115 90.2464 130.619 90.2517C130.379 90.2546 130.142 90.2082 129.921 90.1156C129.7 90.023 129.5 89.886 129.334 89.7132C129.168 89.5404 129.04 89.3353 128.956 89.1108C128.873 88.8862 128.836 88.6469 128.849 88.4077C128.875 87.9113 129.091 87.444 129.451 87.1012C129.81 86.7584 130.288 86.5661 130.785 86.5637C131.024 86.5617 131.261 86.6086 131.482 86.7016C131.702 86.7945 131.902 86.9315 132.067 87.1041C132.233 87.2768 132.362 87.4814 132.446 87.7056C132.53 87.9297 132.567 88.1686 132.555 88.4077Z" fill="#263238"/>
<path d="M140.841 88.4076C140.813 88.9035 140.597 89.37 140.237 89.7125C139.878 90.055 139.401 90.2478 138.905 90.2517C138.666 90.2537 138.429 90.2067 138.209 90.1137C137.988 90.0207 137.789 89.8836 137.624 89.7109C137.459 89.5381 137.331 89.3334 137.248 89.1093C137.164 88.8851 137.128 88.6464 137.141 88.4076C137.167 87.9123 137.382 87.4458 137.74 87.1032C138.099 86.7606 138.575 86.5676 139.071 86.5636C139.31 86.5607 139.548 86.6071 139.769 86.6997C139.99 86.7923 140.189 86.9293 140.355 87.1021C140.521 87.2749 140.65 87.48 140.733 87.7045C140.817 87.9291 140.854 88.1684 140.841 88.4076Z" fill="#263238"/>
<path d="M149.133 88.4076C149.105 88.9035 148.889 89.37 148.529 89.7125C148.17 90.055 147.693 90.2478 147.197 90.2517C146.957 90.2536 146.72 90.2067 146.5 90.1138C146.279 90.0208 146.08 89.8838 145.914 89.7112C145.748 89.5385 145.62 89.3339 145.536 89.1097C145.452 88.8856 145.415 88.6467 145.426 88.4076C145.455 87.9118 145.67 87.4453 146.03 87.1028C146.39 86.7603 146.866 86.5675 147.363 86.5636C147.602 86.5607 147.84 86.6071 148.061 86.6997C148.282 86.7923 148.481 86.9293 148.647 87.1021C148.813 87.2749 148.942 87.48 149.025 87.7045C149.109 87.9291 149.146 88.1684 149.133 88.4076Z" fill="#263238"/>
<path d="M131.16 119.596C131.13 120.092 130.914 120.557 130.555 120.9C130.195 121.242 129.72 121.435 129.224 121.44C128.984 121.442 128.747 121.395 128.526 121.302C128.306 121.209 128.107 121.072 127.941 120.9C127.775 120.727 127.646 120.523 127.563 120.298C127.479 120.074 127.442 119.835 127.453 119.596C127.481 119.1 127.697 118.634 128.057 118.291C128.416 117.949 128.893 117.756 129.39 117.752C129.629 117.75 129.866 117.797 130.087 117.89C130.307 117.983 130.506 118.12 130.672 118.293C130.838 118.465 130.967 118.67 131.05 118.894C131.134 119.118 131.171 119.357 131.16 119.596Z" fill="#263238"/>
<path d="M139.446 119.596C139.418 120.091 139.203 120.557 138.844 120.899C138.486 121.241 138.011 121.435 137.516 121.44C137.276 121.443 137.038 121.397 136.817 121.304C136.596 121.212 136.397 121.075 136.231 120.902C136.065 120.729 135.936 120.524 135.853 120.299C135.769 120.075 135.733 119.836 135.745 119.596C135.773 119.1 135.989 118.634 136.349 118.291C136.708 117.949 137.185 117.756 137.682 117.752C137.921 117.75 138.158 117.797 138.378 117.89C138.598 117.983 138.797 118.12 138.962 118.293C139.127 118.466 139.256 118.671 139.339 118.895C139.422 119.119 139.458 119.358 139.446 119.596Z" fill="#263238"/>
<path d="M147.756 119.596C147.728 120.092 147.512 120.559 147.153 120.901C146.793 121.244 146.316 121.436 145.82 121.44C145.581 121.441 145.344 121.394 145.124 121.301C144.904 121.207 144.705 121.07 144.539 120.898C144.374 120.725 144.245 120.521 144.161 120.297C144.077 120.074 144.039 119.835 144.05 119.596C144.079 119.101 144.295 118.635 144.655 118.293C145.014 117.951 145.49 117.758 145.986 117.752C146.225 117.749 146.463 117.796 146.684 117.888C146.905 117.981 147.104 118.118 147.27 118.291C147.436 118.464 147.565 118.669 147.649 118.893C147.732 119.118 147.769 119.357 147.756 119.596Z" fill="#263238"/>
<path d="M156.03 119.596C156 120.092 155.784 120.557 155.425 120.9C155.065 121.242 154.59 121.435 154.093 121.44C153.854 121.441 153.618 121.394 153.397 121.301C153.177 121.207 152.978 121.07 152.813 120.898C152.647 120.725 152.518 120.521 152.434 120.297C152.35 120.074 152.312 119.835 152.323 119.596C152.353 119.101 152.569 118.635 152.928 118.293C153.287 117.951 153.763 117.758 154.259 117.752C154.499 117.75 154.736 117.797 154.956 117.89C155.177 117.983 155.376 118.12 155.542 118.293C155.708 118.465 155.836 118.67 155.92 118.894C156.004 119.118 156.041 119.357 156.03 119.596Z" fill="#263238"/>
<path d="M164.352 119.596C164.323 120.092 164.106 120.557 163.747 120.9C163.388 121.242 162.912 121.435 162.416 121.44C162.176 121.443 161.939 121.397 161.718 121.304C161.497 121.212 161.297 121.075 161.131 120.902C160.965 120.729 160.837 120.524 160.753 120.299C160.67 120.075 160.633 119.836 160.646 119.596C160.674 119.1 160.89 118.634 161.249 118.291C161.609 117.949 162.085 117.756 162.582 117.752C162.821 117.75 163.058 117.797 163.279 117.89C163.5 117.983 163.699 118.12 163.865 118.293C164.03 118.465 164.159 118.67 164.243 118.894C164.327 119.118 164.364 119.357 164.352 119.596Z" fill="#263238"/>
<path d="M163.094 44.4803C165.667 41.9644 165.804 37.9317 163.399 35.473C160.995 33.0143 156.96 33.0607 154.387 35.5766C151.815 38.0925 151.678 42.1252 154.082 44.5839C156.487 47.0426 160.522 46.9962 163.094 44.4803Z" fill="#4CAF4F"/>
<path d="M170.831 54.5513C169.299 56.5577 167.329 58.1865 165.07 59.3128C162.811 60.439 160.324 61.0328 157.8 61.0484C155.352 61.0692 152.937 60.4874 150.767 59.3543C148.598 58.2213 146.74 56.5718 145.359 54.5513C148.346 51.5763 153.073 49.6339 158.31 49.6339C163.547 49.6339 168.108 51.5763 170.831 54.5513Z" fill="#4CAF4F"/>
<path opacity="0.1" d="M163.094 44.4803C165.667 41.9644 165.804 37.9317 163.399 35.473C160.995 33.0143 156.96 33.0607 154.387 35.5766C151.815 38.0925 151.678 42.1252 154.082 44.5839C156.487 47.0426 160.522 46.9962 163.094 44.4803Z" fill="white"/>
<path opacity="0.1" d="M170.831 54.5513C169.299 56.5577 167.329 58.1865 165.07 59.3128C162.811 60.439 160.324 61.0328 157.8 61.0484C155.352 61.0692 152.937 60.4874 150.767 59.3543C148.598 58.2213 146.74 56.5718 145.359 54.5513C148.346 51.5763 153.073 49.6339 158.31 49.6339C163.547 49.6339 168.108 51.5763 170.831 54.5513Z" fill="white"/>
<path d="M80.3938 96.9701C79.8098 98.2486 79.1951 99.6562 78.6604 101.021C78.1256 102.385 77.5785 103.793 77.1052 105.194C76.1389 107.956 75.4028 110.794 74.9047 113.677L74.7695 114.581C74.7566 114.736 74.7711 114.892 74.8125 115.042C74.9576 115.551 75.186 116.033 75.4886 116.468C76.278 117.593 77.1937 118.624 78.2178 119.541C79.2975 120.545 80.4301 121.491 81.6108 122.375C82.791 123.284 84.0326 124.169 85.2558 125.005L84.1064 127.163C81.1856 125.89 78.4132 124.301 75.839 122.424C74.4657 121.422 73.2262 120.249 72.151 118.932C71.5136 118.149 71.0166 117.261 70.6819 116.308C70.4873 115.712 70.3877 115.09 70.3868 114.464C70.3868 114.316 70.3868 114.101 70.3868 113.997V113.695L70.4483 113.081C70.8007 109.878 71.4741 106.719 72.4583 103.652C72.9377 102.14 73.4479 100.634 74.0319 99.1645C74.6158 97.6954 75.2182 96.2571 75.9619 94.7634L80.3938 96.9701Z" fill="#E58A7B"/>
<path d="M84.3891 124.624L88.7349 122.424L87.61 127.194C87.61 127.194 84.6289 128.03 83.2458 126.579L84.3891 124.624Z" fill="#E58A7B"/>
<path d="M92.7119 123.204L91.5563 127.151L87.61 127.194L88.7349 122.424L92.7119 123.204Z" fill="#E58A7B"/>
<path d="M98.8463 73.9567C99.0788 74.8085 99.4023 75.6328 99.8114 76.4154C99.6919 76.5509 99.538 76.6516 99.3659 76.7068C99.1939 76.7619 99.0101 76.7696 98.834 76.7288L98.8463 73.9567Z" fill="#DF5753"/>
<path d="M98.7172 73.9936C98.9718 73.9936 99.1782 73.6771 99.1782 73.2867C99.1782 72.8963 98.9718 72.5798 98.7172 72.5798C98.4626 72.5798 98.2562 72.8963 98.2562 73.2867C98.2562 73.6771 98.4626 73.9936 98.7172 73.9936Z" fill="#263238"/>
<path d="M98.582 72.6044L99.5163 72.3401C99.5163 72.3401 99.0615 73.0654 98.582 72.6044Z" fill="#263238"/>
<path d="M86.8417 78.4684C87.4011 81.3266 87.9604 86.5698 85.9566 88.4814C85.9566 88.4814 86.7434 91.3827 92.0603 91.3827C97.9059 91.3827 94.8509 88.4814 94.8509 88.4814C91.6608 87.7192 91.7407 85.3527 92.3 83.1276L86.8417 78.4684Z" fill="#E58A7B"/>
<path d="M85.2866 71.9529C85.5816 76.7289 85.6062 78.7573 88.0157 81.2099C91.6485 84.8979 97.451 83.4965 98.5882 78.7512C99.6147 74.4485 98.9631 67.3674 94.2854 65.4681C93.2587 65.0451 92.1409 64.891 91.038 65.0205C89.9351 65.1499 88.8835 65.5586 87.9825 66.2078C87.0816 66.857 86.3612 67.7254 85.8894 68.7307C85.4177 69.736 85.2102 70.845 85.2866 71.9529Z" fill="#E58A7B"/>
<path d="M85.7599 66.5805C83.3627 67.4533 80.1664 66.8018 81.4203 74.1963C82.748 82.0273 80.7073 84.6028 80.7073 84.6028C80.7073 84.6028 89.7983 86.539 99.0799 84.486C99.0799 84.486 96.2463 79.5317 97.0392 75.8805C98.0534 71.2705 97.2543 69.5678 97.2543 69.5678C97.2543 69.5678 89.1283 65.3511 85.7599 66.5805Z" fill="#263238"/>
<path d="M95.902 74.4422C95.9045 75.3504 96.1646 76.2392 96.6519 77.0054C97.3035 78.0012 98.0718 77.6201 98.2624 76.5629C98.4345 75.6347 98.3054 73.9935 97.4756 73.3543C96.6458 72.715 95.9143 73.342 95.902 74.4422Z" fill="#E58A7B"/>
<path d="M83.6761 67.3858C82.9877 65.4496 86.2701 62.4684 93.2159 63.6977C100.162 64.9271 100.463 70.7112 100.463 70.7112L99.0615 69.0393L99.1229 70.7972L91.9866 72.168L83.6761 67.3858Z" fill="#263238"/>
<path d="M84.2663 88.8072C84.2253 88.5265 84.2955 88.2409 84.462 88.0113C84.6284 87.7817 84.878 87.6261 85.1575 87.5778C87.3212 87.2213 92.2386 86.496 94.7096 86.8402C96.5536 87.0984 97.0331 88.1679 97.113 89.0469C97.1255 89.2008 97.1049 89.3556 97.0526 89.5009C97.0003 89.6462 96.9175 89.7786 96.8098 89.8893C96.7021 89.9999 96.5719 90.0862 96.4281 90.1423C96.2842 90.1985 96.13 90.2232 95.9758 90.2148L85.2928 89.7353C85.0409 89.7226 84.8012 89.6233 84.6141 89.4542C84.4271 89.285 84.3042 89.0565 84.2663 88.8072Z" fill="#4CAF4F"/>
<path opacity="0.6" d="M84.2663 88.8072C84.2253 88.5265 84.2955 88.2409 84.462 88.0113C84.6284 87.7817 84.878 87.6261 85.1575 87.5778C87.3212 87.2213 92.2386 86.496 94.7096 86.8402C96.5536 87.0984 97.0331 88.1679 97.113 89.0469C97.1255 89.2008 97.1049 89.3556 97.0526 89.5009C97.0003 89.6462 96.9175 89.7786 96.8098 89.8893C96.7021 89.9999 96.5719 90.0862 96.4281 90.1423C96.2842 90.1985 96.13 90.2232 95.9758 90.2148L85.2928 89.7353C85.0409 89.7226 84.8012 89.6233 84.6141 89.4542C84.4271 89.285 84.3042 89.0565 84.2663 88.8072Z" fill="black"/>
<path d="M90.4437 196.191L94.4084 198.945L101.041 189.952L97.0761 187.204L90.4437 196.191Z" fill="#E58A7B"/>
<path d="M81.199 196.013L85.3849 198.398L91.2551 188.889L87.0691 186.504L81.199 196.013Z" fill="#E58A7B"/>
<path d="M101.035 189.952L97.617 194.587L93.6523 191.839L97.0699 187.204L101.035 189.952Z" fill="#CF6F64"/>
<path d="M87.063 186.504L91.2551 188.895L88.2309 193.794L84.0388 191.403L87.063 186.504Z" fill="#CF6F64"/>
<path d="M93.7875 118.828C93.7875 118.828 109.265 138.332 106.358 156.987C104.016 172.053 90.4314 192.454 90.4314 192.454L84.045 189.282C88.5465 180.262 92.3881 170.927 95.5394 161.351C96.5112 158.378 96.7948 155.223 96.3689 152.125C95.9429 149.026 94.8186 146.065 93.0807 143.464C85.2374 132.013 72.6735 138.829 81.1252 118.828H93.7875Z" fill="#4CAF4F"/>
<path opacity="0.6" d="M93.7875 118.828C93.7875 118.828 109.265 138.332 106.358 156.987C104.016 172.053 90.4314 192.454 90.4314 192.454L84.045 189.282C88.5465 180.262 92.3881 170.927 95.5394 161.351C96.5112 158.378 96.7948 155.223 96.3689 152.125C95.9429 149.026 94.8186 146.065 93.0807 143.464C85.2374 132.013 72.6735 138.829 81.1252 118.828H93.7875Z" fill="black"/>
<path opacity="0.4" d="M101.379 131.355L99.1291 129.118C99.1291 129.296 103.487 156.2 104.71 163.761C105.432 161.552 105.985 159.292 106.364 156.999C107.802 147.847 104.796 138.498 101.379 131.355Z" fill="black"/>
<path d="M100.697 118.828C100.697 118.828 119.333 143.341 119.862 158.038C120.298 170.332 99.5778 194.15 99.5778 194.15L93.554 190.253C93.554 190.253 105.682 173.337 108.736 159.519C107.556 145.824 82.6005 118.828 82.6005 118.828H100.697Z" fill="#4CAF4F"/>
<path opacity="0.6" d="M100.697 118.828C100.697 118.828 119.333 143.341 119.862 158.038C120.298 170.332 99.5778 194.15 99.5778 194.15L93.554 190.253C93.554 190.253 105.682 173.337 108.736 159.519C107.556 145.824 82.6005 118.828 82.6005 118.828H100.697Z" fill="black"/>
<path d="M77.6401 89.5755C75.6485 90.0488 73.7369 97.2897 73.7369 97.2897L81.5248 102.49C81.5248 102.49 84.1187 96.7611 83.209 94.2532C82.2686 91.6408 80.1418 88.9793 77.6401 89.5755Z" fill="#4CAF4F"/>
<path opacity="0.2" d="M79.1645 94.241L78.6235 100.554L81.5187 102.496C82.318 100.696 82.9099 98.8115 83.2828 96.8779L79.1645 94.241Z" fill="black"/>
<path d="M103.002 89.7169C103.002 89.7169 105.3 90.5221 100.696 118.822H81.1129C81.4449 110.831 81.451 105.914 77.64 89.5755C80.3821 89.0104 83.1616 88.6447 85.9566 88.4814C88.9176 88.2691 91.8899 88.2691 94.8509 88.4814C98.6742 88.8317 103.002 89.7169 103.002 89.7169Z" fill="#4CAF4F"/>
<path d="M104.993 94.2409C105.436 95.4702 105.903 96.7918 106.394 98.0642C106.886 99.3365 107.353 100.646 107.851 101.937L109.357 105.797L109.738 106.762L109.935 107.241L110.027 107.481C110.027 107.524 110.027 107.524 110.027 107.518C109.915 107.36 109.768 107.229 109.597 107.137C109.354 106.994 109.08 106.911 108.798 106.897C108.564 106.89 108.331 106.934 108.116 107.026C107.833 107.155 107.833 107.211 107.839 107.204C107.89 107.163 107.936 107.116 107.974 107.063C108.314 106.616 108.609 106.136 108.853 105.631C109.142 105.065 109.419 104.463 109.695 103.854C110.236 102.625 110.734 101.353 111.232 100.068C111.73 98.7833 112.203 97.4864 112.664 96.1771L114.066 92.2555L116.432 92.8702C115.965 95.6731 115.363 98.4022 114.637 101.181C114.287 102.564 113.875 103.934 113.408 105.317C113.174 106.012 112.916 106.7 112.621 107.407C112.314 108.174 111.935 108.911 111.49 109.608C111.327 109.842 111.146 110.064 110.949 110.272C110.635 110.611 110.254 110.881 109.831 111.065C109.454 111.226 109.047 111.302 108.638 111.286C108.18 111.269 107.734 111.136 107.341 110.899C106.878 110.61 106.494 110.21 106.222 109.737C106.13 109.577 106.05 109.417 105.995 109.3L105.878 109.067L105.645 108.587L105.177 107.635C104.563 106.356 103.948 105.065 103.413 103.768C102.879 102.471 102.313 101.156 101.784 99.8344C101.256 98.5129 100.783 97.1913 100.334 95.7653L104.993 94.2409Z" fill="#E58A7B"/>
<path d="M103.002 89.7169C105.356 90.2762 108.005 97.2344 108.005 97.2344L101.004 103.191C101.004 103.191 96.4737 95.6055 97.3895 93.1037C98.3423 90.4975 99.9281 88.9854 103.002 89.7169Z" fill="#4CAF4F"/>
<path d="M115.178 90.055L117.637 88.002L119.346 90.6635L118.086 92.8825C118.086 92.8825 116.082 94.7265 114.312 93.786C114.031 93.1545 113.963 92.4486 114.12 91.7753C114.276 91.1019 114.648 90.498 115.178 90.055Z" fill="#E58A7B"/>
<path d="M122.075 88.0081L121.89 88.6781L118 89.3296L117.618 88.002L122.075 88.0081Z" fill="#E58A7B"/>
<path d="M100.057 194.464L93.0377 189.927L94.2977 187.739L102.184 192.589L100.057 194.464Z" fill="#4CAF4F"/>
<path d="M88.1326 198.078C87.5167 198.003 86.9249 197.793 86.3992 197.463C86.3775 197.456 86.3587 197.442 86.3454 197.423C86.332 197.404 86.3249 197.382 86.3249 197.359C86.3249 197.336 86.332 197.314 86.3454 197.295C86.3587 197.276 86.3775 197.262 86.3992 197.254C86.5897 197.193 88.2432 196.683 88.7226 197.076C88.7765 197.121 88.8175 197.179 88.8413 197.245C88.865 197.311 88.8708 197.382 88.8579 197.451C88.8493 197.562 88.8127 197.668 88.7513 197.761C88.69 197.853 88.6061 197.929 88.5075 197.98C88.3924 198.043 88.2637 198.076 88.1326 198.078ZM86.7495 197.402C87.5179 197.795 88.1325 197.937 88.4276 197.789C88.4918 197.754 88.5459 197.702 88.5846 197.64C88.6234 197.577 88.6455 197.506 88.6489 197.433C88.6489 197.334 88.6489 197.291 88.5936 197.267C88.3354 197.058 87.4134 197.218 86.7372 197.402H86.7495Z" fill="#263238"/>
<path d="M86.4422 197.506C86.4097 197.506 86.3788 197.493 86.3561 197.469C86.347 197.452 86.3422 197.433 86.3422 197.414C86.3422 197.395 86.347 197.376 86.3561 197.359C86.3561 197.304 86.7556 195.97 87.3826 195.668C87.4627 195.632 87.5497 195.613 87.6377 195.613C87.7257 195.613 87.8127 195.632 87.8928 195.668C87.9791 195.696 88.0538 195.751 88.1051 195.826C88.1563 195.9 88.1811 195.99 88.1755 196.08C88.1325 196.633 87.0077 197.396 86.4913 197.525L86.4422 197.506ZM87.6346 195.828C87.5748 195.83 87.5161 195.845 87.4625 195.871C87.0814 196.056 86.7679 196.775 86.6143 197.211C87.1552 196.984 87.8989 196.381 87.9235 196.043C87.9235 195.988 87.9235 195.92 87.7821 195.859C87.7362 195.834 87.6863 195.818 87.6346 195.81V195.828Z" fill="#263238"/>
<path d="M96.904 200.733C96.2094 200.733 95.2443 199.842 94.7157 199.295C94.7022 199.276 94.6949 199.254 94.6949 199.231C94.6949 199.207 94.7022 199.185 94.7157 199.166C94.7279 199.146 94.7451 199.13 94.7657 199.119C94.7862 199.108 94.8093 199.103 94.8325 199.105C95.0784 199.105 97.2113 199.424 97.5125 200.027C97.5444 200.081 97.5612 200.142 97.5612 200.205C97.5612 200.268 97.5444 200.329 97.5125 200.383C97.4673 200.477 97.3991 200.558 97.3141 200.618C97.2292 200.678 97.1304 200.716 97.0269 200.727L96.904 200.733ZM95.1214 199.381C95.8959 200.131 96.5782 200.549 96.9654 200.5C97.0332 200.491 97.0979 200.466 97.1536 200.426C97.2093 200.386 97.2545 200.334 97.2851 200.272C97.2988 200.251 97.3061 200.227 97.3061 200.202C97.3061 200.177 97.2988 200.152 97.2851 200.131C97.1252 199.799 95.9881 199.516 95.1214 199.381Z" fill="#263238"/>
<path d="M95.189 199.35C95.0511 199.354 94.9131 199.344 94.7772 199.32C94.7582 199.317 94.7403 199.309 94.7252 199.297C94.7101 199.285 94.6984 199.27 94.6912 199.252C94.682 199.234 94.6772 199.214 94.6772 199.194C94.6772 199.173 94.682 199.153 94.6912 199.135C94.728 199.092 95.5578 198.09 96.3446 198.023C96.5674 198.005 96.788 198.076 96.9593 198.219C97.199 198.428 97.1867 198.613 97.1253 198.73C96.9716 199.148 95.9082 199.35 95.189 199.35ZM95.0292 199.123C95.7177 199.16 96.8179 198.932 96.9593 198.631C96.9593 198.631 97.0085 198.533 96.8487 198.398C96.7851 198.342 96.7108 198.301 96.6304 198.275C96.55 198.25 96.4653 198.241 96.3815 198.25C95.8515 198.398 95.3796 198.705 95.0292 199.129V199.123Z" fill="#263238"/>
<path d="M86.6082 196.843L81.3957 195.367C81.3059 195.34 81.2091 195.347 81.1241 195.387C81.039 195.426 80.9715 195.496 80.9347 195.582L79.1767 199.535C79.1354 199.636 79.1161 199.745 79.1198 199.854C79.1236 199.963 79.1505 200.071 79.1987 200.169C79.2469 200.267 79.3153 200.354 79.3995 200.423C79.4836 200.493 79.5816 200.544 79.6869 200.574C81.5309 201.053 82.4161 201.188 84.7088 201.846C86.1226 202.239 88.1387 202.971 90.0872 203.524C92.0357 204.077 92.6873 202.178 91.9312 201.772C88.5136 199.965 88.2432 198.699 87.3089 197.347C87.1415 197.102 86.8936 196.923 86.6082 196.843Z" fill="#4CAF4F"/>
<path d="M94.8571 198.576L90.4068 195.502C90.3314 195.448 90.2384 195.422 90.1455 195.431C90.0526 195.44 89.9662 195.483 89.9028 195.552L86.9524 198.723C86.8805 198.805 86.8268 198.902 86.795 199.006C86.7632 199.11 86.754 199.22 86.768 199.328C86.7819 199.437 86.8187 199.54 86.876 199.633C86.9332 199.726 87.0095 199.806 87.0999 199.867C88.6673 200.918 89.4787 201.342 91.4395 202.7C92.6688 203.536 95.0476 205.393 96.7072 206.548C98.3669 207.704 99.6024 206.118 99.0123 205.491C96.3692 202.67 95.7914 200.899 95.355 199.295C95.2792 199.004 95.1028 198.749 94.8571 198.576Z" fill="#4CAF4F"/>
<path d="M91.2489 192.859L83.2274 188.87L84.0572 186.694L92.6258 190.899L91.2489 192.859Z" fill="#4CAF4F"/>
<path d="M80.8179 117.672L80.1417 119.443C80.0741 119.578 80.2339 119.719 80.4614 119.719H100.795C100.973 119.719 101.121 119.633 101.133 119.523L101.305 117.765C101.305 117.648 101.164 117.543 100.973 117.543H81.1375C81.0778 117.538 81.0176 117.546 80.962 117.569C80.9064 117.591 80.857 117.627 80.8179 117.672Z" fill="#4CAF4F"/>
<path opacity="0.4" d="M80.8179 117.672L80.1417 119.443C80.0741 119.578 80.2339 119.719 80.4614 119.719H100.795C100.973 119.719 101.121 119.633 101.133 119.523L101.305 117.765C101.305 117.648 101.164 117.543 100.973 117.543H81.1375C81.0778 117.538 81.0176 117.546 80.962 117.569C80.9064 117.591 80.857 117.627 80.8179 117.672Z" fill="white"/>
<path d="M84.0204 119.891H83.4856C83.3811 119.891 83.3012 119.836 83.3073 119.768L83.5594 117.488C83.5594 117.427 83.6577 117.371 83.7622 117.371H84.297C84.4015 117.371 84.4814 117.427 84.4752 117.488L84.2232 119.768C84.2171 119.836 84.1249 119.891 84.0204 119.891Z" fill="#4CAF4F"/>
<path d="M96.5598 119.891H96.0311C95.9266 119.891 95.8467 119.836 95.8529 119.768L96.0987 117.488C96.0987 117.427 96.2032 117.371 96.3077 117.371H96.8364C96.9408 117.371 97.0269 117.427 97.0146 117.488L96.7687 119.768C96.738 119.836 96.6704 119.891 96.5598 119.891Z" fill="#4CAF4F"/>
<g style="mix-blend-mode:multiply">
<path d="M83.5532 223.986C92.6478 223.986 100.02 223.453 100.02 222.794C100.02 222.135 92.6478 221.602 83.5532 221.602C74.4587 221.602 67.0861 222.135 67.0861 222.794C67.0861 223.453 74.4587 223.986 83.5532 223.986Z" fill="#F5F5F5"/>
</g>
<path d="M93.5847 221.11C90.6712 220.262 87.438 219.174 85.4833 218.036C85.428 218 85.3665 217.981 85.3112 217.95V204.76H91.2059C91.6534 204.733 92.0738 204.537 92.3813 204.21C92.6888 203.884 92.86 203.453 92.86 203.005C92.86 202.556 92.6888 202.125 92.3813 201.799C92.0738 201.473 91.6534 201.276 91.2059 201.25H85.3419V141.122H81.8014V201.25H75.9435C75.7043 201.236 75.4648 201.27 75.2396 201.352C75.0143 201.434 74.8082 201.561 74.6339 201.725C74.4595 201.89 74.3206 202.088 74.2256 202.308C74.1306 202.528 74.0817 202.765 74.0817 203.005C74.0817 203.244 74.1306 203.481 74.2256 203.701C74.3206 203.921 74.4595 204.12 74.6339 204.284C74.8082 204.448 75.0143 204.575 75.2396 204.657C75.4648 204.739 75.7043 204.774 75.9435 204.76H81.8014V217.932C81.7461 217.932 81.6907 217.981 81.6354 218.018C79.65 219.174 76.4414 220.262 73.5279 221.091C73.3311 221.151 73.1621 221.279 73.0515 221.452C72.9409 221.626 72.896 221.833 72.925 222.036C72.9539 222.24 73.0548 222.426 73.2094 222.562C73.364 222.698 73.562 222.773 73.7676 222.776H93.345C93.5415 222.762 93.7274 222.682 93.8718 222.548C94.0161 222.414 94.1102 222.235 94.1383 222.04C94.1663 221.845 94.1266 221.646 94.0259 221.477C93.9252 221.308 93.7694 221.178 93.5847 221.11Z" fill="#E0E0E0"/>
<path d="M94.4883 135H72.6304C70.8719 135 69.4464 136.426 69.4464 138.184V144.681C69.4464 146.44 70.8719 147.865 72.6304 147.865H94.4883C96.2468 147.865 97.6723 146.44 97.6723 144.681V138.184C97.6723 136.426 96.2468 135 94.4883 135Z" fill="#4CAF4F"/>
<path d="M72.4276 147.871V148.99C72.4276 149.912 73.4295 150.662 74.6588 150.662H92.4844C93.7138 150.662 94.7157 149.912 94.7157 148.99V147.871H72.4276Z" fill="#4CAF4F"/>
<path opacity="0.3" d="M72.4276 147.871V148.99C72.4276 149.912 73.4295 150.662 74.6588 150.662H92.4844C93.7138 150.662 94.7157 149.912 94.7157 148.99V147.871H72.4276Z" fill="white"/>
</svg>
